<svg width="60" height="60" viewBox="0 0 60 60" fill="none" xmlns="http://www.w3.org/2000/svg">
<g clip-path="url(#clip0_620_1467)">
<path d="M52.5 56.25H43.125C42.1308 56.2489 41.1776 55.8534 40.4746 55.1504C39.7716 54.4474 39.3761 53.4942 39.375 52.5V43.125C39.3761 42.1308 39.7716 41.1776 40.4746 40.4746C41.1776 39.7716 42.1308 39.3761 43.125 39.375H52.5C53.4942 39.3761 54.4474 39.7716 55.1504 40.4746C55.8534 41.1776 56.2489 42.1308 56.25 43.125V52.5C56.2489 53.4942 55.8534 54.4474 55.1504 55.1504C54.4474 55.8534 53.4942 56.2489 52.5 56.25ZM43.125 43.125H43.1228L43.125 52.5H52.5V43.125H43.125Z" fill="#ED2D23"/>
<path d="M30 43.125H20.625C19.6308 43.1239 18.6776 42.7284 17.9746 42.0254C17.2716 41.3224 16.8761 40.3692 16.875 39.375V20.625C16.8761 19.6308 17.2716 18.6776 17.9746 17.9746C18.6776 17.2716 19.6308 16.8761 20.625 16.875H39.375C40.3692 16.8761 41.3224 17.2716 42.0254 17.9746C42.7284 18.6776 43.1239 19.6308 43.125 20.625V30H39.375V20.625H20.625V39.375H30V43.125Z" fill="#ED2D23"/>
<path d="M30 56.25H7.5C6.50579 56.2489 5.55262 55.8534 4.84961 55.1504C4.1466 54.4474 3.75114 53.4942 3.75 52.5V7.5C3.75114 6.50579 4.1466 5.55262 4.84961 4.84961C5.55262 4.1466 6.50579 3.75114 7.5 3.75H52.5C53.4942 3.75114 54.4474 4.1466 55.1504 4.84961C55.8534 5.55262 56.2489 6.50579 56.25 7.5V30H52.5V7.5H7.5V52.5H30V56.25Z" fill="#ED2D23"/>
</g>
<defs>
<clipPath id="clip0_620_1467">
<rect width="60" height="60" fill="white"/>
</clipPath>
</defs>
</svg>
