<svg width="40" height="40" viewBox="0 0 40 40" fill="none" xmlns="http://www.w3.org/2000/svg">
<path d="M36.7699 11.4637L28.5371 3.23243C28.305 3.00023 28.0294 2.81603 27.726 2.69036C27.4226 2.56468 27.0975 2.5 26.7692 2.5C26.4408 2.5 26.1157 2.56468 25.8123 2.69036C25.509 2.81603 25.2333 3.00023 25.0012 3.23243L3.23244 24.9996C3.00023 25.2318 2.81603 25.5074 2.69036 25.8107C2.56468 26.1141 2.5 26.4392 2.5 26.7676C2.5 27.0959 2.56468 27.4211 2.69036 27.7244C2.81603 28.0278 3.00023 28.3034 3.23244 28.5356L11.4653 36.7668C11.6974 36.999 11.973 37.1832 12.2764 37.3089C12.5797 37.4346 12.9049 37.4992 13.2332 37.4992C13.5616 37.4992 13.8867 37.4346 14.1901 37.3089C14.4934 37.1832 14.769 36.999 15.0012 36.7668L36.7699 14.9996C37.0022 14.7675 37.1863 14.4918 37.312 14.1885C37.4377 13.8851 37.5024 13.56 37.5024 13.2317C37.5024 12.9033 37.4377 12.5782 37.312 12.2748C37.1863 11.9715 37.0022 11.6958 36.7699 11.4637ZM13.2324 34.9996L5.00119 26.7668L10.0012 21.7668L14.1168 25.884C14.2329 26.0001 14.3708 26.0923 14.5226 26.1551C14.6743 26.218 14.8369 26.2503 15.0012 26.2503C15.1654 26.2503 15.3281 26.218 15.4798 26.1551C15.6315 26.0923 15.7694 26.0001 15.8856 25.884C16.0017 25.7679 16.0938 25.63 16.1567 25.4782C16.2195 25.3265 16.2519 25.1639 16.2519 24.9996C16.2519 24.8354 16.2195 24.6727 16.1567 24.521C16.0938 24.3693 16.0017 24.2314 15.8856 24.1152L11.7684 19.9996L15.0012 16.7668L19.1168 20.884C19.3514 21.1185 19.6695 21.2503 20.0012 21.2503C20.3329 21.2503 20.651 21.1185 20.8856 20.884C21.1201 20.6494 21.2519 20.3313 21.2519 19.9996C21.2519 19.6679 21.1201 19.3498 20.8856 19.1152L16.7684 14.9996L20.0012 11.7668L24.1168 15.884C24.233 16.0001 24.3708 16.0923 24.5226 16.1551C24.6743 16.218 24.8369 16.2503 25.0012 16.2503C25.1654 16.2503 25.3281 16.218 25.4798 16.1551C25.6316 16.0923 25.7694 16.0001 25.8856 15.884C26.0017 15.7679 26.0938 15.63 26.1567 15.4782C26.2195 15.3265 26.2519 15.1639 26.2519 14.9996C26.2519 14.8354 26.2195 14.6727 26.1567 14.521C26.0938 14.3693 26.0017 14.2314 25.8856 14.1152L21.7684 9.99962L26.7684 4.99962L35.0012 13.2324L13.2324 34.9996Z" fill="black"/>
</svg>
