<svg width="23" height="23" viewBox="0 0 23 23" fill="none" xmlns="http://www.w3.org/2000/svg">
<path d="M21.4882 8.73808C21.3983 8.46183 21.2287 8.21836 21.0007 8.03834C20.7727 7.85831 20.4966 7.74979 20.207 7.72644L14.9062 7.29878L12.8596 2.34929C12.7489 2.07959 12.5605 1.8489 12.3184 1.68655C12.0763 1.52419 11.7913 1.4375 11.4998 1.4375C11.2083 1.4375 10.9233 1.52419 10.6812 1.68655C10.4391 1.8489 10.2507 2.07959 10.14 2.34929L8.09518 7.29788L2.7917 7.72644C2.50167 7.75097 2.22532 7.86054 1.99728 8.04144C1.76924 8.22233 1.59966 8.46649 1.50978 8.74334C1.41989 9.02019 1.41371 9.3174 1.49199 9.59775C1.57028 9.8781 1.72955 10.1291 1.94987 10.3193L5.99284 13.808L4.76108 19.0243C4.69219 19.3077 4.70906 19.6052 4.80954 19.8789C4.91002 20.1527 5.08958 20.3905 5.32544 20.562C5.56129 20.7336 5.8428 20.8312 6.13423 20.8425C6.42565 20.8537 6.71385 20.7781 6.96225 20.6253L11.4994 17.833L16.0392 20.6253C16.2876 20.7763 16.5753 20.8505 16.8658 20.8383C17.1563 20.8262 17.4367 20.7284 17.6718 20.5573C17.9069 20.3861 18.086 20.1492 18.1867 19.8764C18.2874 19.6036 18.3051 19.3071 18.2376 19.0243L17.0014 13.8071L21.0444 10.3184C21.2665 10.1285 21.4272 9.87697 21.5062 9.59564C21.5852 9.3143 21.5789 9.01585 21.4882 8.73808ZM20.11 9.22953L15.7346 13.003C15.6348 13.089 15.5606 13.2007 15.52 13.3261C15.4795 13.4514 15.4741 13.5855 15.5046 13.7136L16.8415 19.3558C16.8449 19.3636 16.8453 19.3724 16.8424 19.3804C16.8396 19.3884 16.8338 19.3951 16.8262 19.3989C16.81 19.4115 16.8055 19.4088 16.7921 19.3989L11.8758 16.3757C11.7626 16.3061 11.6323 16.2692 11.4994 16.2692C11.3664 16.2692 11.2361 16.3061 11.1229 16.3757L6.20666 19.4007C6.19319 19.4088 6.18959 19.4115 6.17252 19.4007C6.16494 19.3969 6.15913 19.3902 6.15629 19.3822C6.15345 19.3742 6.15379 19.3654 6.15725 19.3576L7.49412 13.7154C7.52459 13.5873 7.51925 13.4532 7.47869 13.3279C7.43813 13.2025 7.3639 13.0908 7.26412 13.0048L2.88873 9.23132C2.87795 9.22234 2.86807 9.21425 2.87705 9.1864C2.88604 9.15855 2.89323 9.16214 2.9067 9.16035L8.64951 8.69675C8.78123 8.68545 8.90729 8.63805 9.0138 8.55974C9.12032 8.48144 9.20318 8.37527 9.25326 8.25292L11.4652 2.89734C11.4724 2.88206 11.4751 2.87488 11.4967 2.87488C11.5182 2.87488 11.5209 2.88206 11.5281 2.89734L13.7455 8.25292C13.796 8.37532 13.8794 8.48137 13.9864 8.55937C14.0934 8.63737 14.2199 8.68429 14.3519 8.69495L20.0947 9.15855C20.1082 9.15855 20.1163 9.15855 20.1244 9.1846C20.1324 9.21066 20.1244 9.22054 20.11 9.22953Z" fill="#ADA6A6"/>
</svg>
