<svg width="23" height="23" viewBox="0 0 23 23" fill="none" xmlns="http://www.w3.org/2000/svg">
<path d="M21.0477 10.3185L17.0048 13.8071L18.2365 19.0244C18.3045 19.3076 18.287 19.6046 18.1862 19.8779C18.0855 20.1511 17.906 20.3884 17.6704 20.5598C17.4349 20.7311 17.1539 20.8287 16.8628 20.8404C16.5718 20.8521 16.2839 20.7773 16.0353 20.6254L11.4982 17.833L6.95843 20.6254C6.70995 20.7764 6.42234 20.8505 6.13181 20.8384C5.84129 20.8263 5.56084 20.7285 5.32579 20.5573C5.09074 20.3862 4.91159 20.1493 4.8109 19.8765C4.71021 19.6037 4.69248 19.3072 4.75995 19.0244L5.9962 13.8071L1.95324 10.3185C1.73339 10.1285 1.57439 9.87793 1.49609 9.59809C1.4178 9.31826 1.42369 9.02156 1.51301 8.74505C1.60234 8.46853 1.77115 8.22447 1.99836 8.04333C2.22557 7.86218 2.50112 7.75199 2.79058 7.72652L8.09136 7.29886L10.1362 2.35027C10.2469 2.08057 10.4353 1.84988 10.6774 1.68752C10.9195 1.52517 11.2045 1.43848 11.496 1.43848C11.7875 1.43848 12.0725 1.52517 12.3146 1.68752C12.5567 1.84988 12.7451 2.08057 12.8558 2.35027L14.8997 7.29886L20.2005 7.72652C20.4905 7.75105 20.7669 7.86062 20.9949 8.04151C21.223 8.22241 21.3925 8.46657 21.4824 8.74342C21.5723 9.02026 21.5785 9.31748 21.5002 9.59783C21.4219 9.87817 21.2627 10.1292 21.0423 10.3194L21.0477 10.3185Z" fill="#ED2D23"/>
</svg>
